HIERARCHY
ROOT Hips
{
	OFFSET 0.000000 35.082581 0.000000
	CHANNELS 6 Xposition Yposition Zposition Xrotation Yrotation Zrotation 
	JOINT Spine
	{
		OFFSET 0.000000 6.876099 0.125700
		CHANNELS 3 Xrotation Yrotation Zrotation
		JOINT Spine1
		{
			OFFSET 0.000000 5.730043 0.104720
			CHANNELS 3 Xrotation Yrotation Zrotation
			JOINT Spine1_split
			{
				OFFSET 0.000000 5.730043 0.104720
				CHANNELS 3 Xrotation Yrotation Zrotation
				JOINT Spine2
				{
					OFFSET 0.000000 5.730043 0.104720
					CHANNELS 3 Xrotation Yrotation Zrotation
					JOINT Neck
					{
						OFFSET 0.000000 10.314075 0.188496
						CHANNELS 3 Xrotation Yrotation Zrotation
						JOINT Head
						{
							OFFSET 0.000000 7.643700 -2.377400
							CHANNELS 3 Xrotation Yrotation Zrotation
							JOINT HeadTop_End
							{
								OFFSET 0.000000 43.788605 -13.619600
								CHANNELS 3 Xrotation Yrotation Zrotation
								End Site
								{
									OFFSET 0.000000 0.000000 0.000000
								}
							}
						}
					}
					JOINT LeftShoulder
					{
						OFFSET 2.196100 4.412489 0.087492
						CHANNELS 3 Xrotation Yrotation Zrotation
						JOINT LeftShoulder_split
						{
							OFFSET 2.196100 4.412489 0.087492
							CHANNELS 3 Xrotation Yrotation Zrotation
							JOINT LeftArm
							{
								OFFSET 8.771219 -2.981674 -0.026999
								CHANNELS 3 Xrotation Yrotation Zrotation
								JOINT LeftForeArm
								{
									OFFSET 8.512804 0.000000 -0.000000
									CHANNELS 3 Xrotation Yrotation Zrotation
									JOINT LeftHand
									{
										OFFSET 18.484802 0.000000 -0.000000
										CHANNELS 3 Xrotation Yrotation Zrotation
										JOINT LeftHandThumb1
										{
											OFFSET 2.499420 -1.158070 2.653252
											CHANNELS 3 Xrotation Yrotation Zrotation
											JOINT LeftHandThumb2
											{
												OFFSET 2.370079 -1.368366 1.368366
												CHANNELS 3 Xrotation Yrotation Zrotation
												JOINT LeftHandThumb3
												{
													OFFSET 2.676727 -1.545410 1.545409
													CHANNELS 3 Xrotation Yrotation Zrotation
													JOINT LeftHandThumb4
													{
														OFFSET 1.692226 -0.977005 0.977007
														CHANNELS 3 Xrotation Yrotation Zrotation
														End Site
														{
															OFFSET 0.000000 0.000000 0.000000
														}
													}
												}
											}
										}
										JOINT LeftHandIndex1
										{
											OFFSET 7.924831 -0.457527 2.345128
											CHANNELS 3 Xrotation Yrotation Zrotation
											JOINT LeftHandIndex2
											{
												OFFSET 3.643303 0.000000 0.000000
												CHANNELS 3 Xrotation Yrotation Zrotation
												JOINT LeftHandIndex3
												{
													OFFSET 3.810799 0.000000 0.000000
													CHANNELS 3 Xrotation Yrotation Zrotation
													JOINT LeftHandIndex4
													{
														OFFSET 2.403702 0.000000 0.000000
														CHANNELS 3 Xrotation Yrotation Zrotation
														End Site
														{
															OFFSET 0.000000 0.000000 0.000000
														}
													}
												}
											}
										}
										JOINT LeftHandMiddle1
										{
											OFFSET 8.563995 0.000000 -0.000000
											CHANNELS 3 Xrotation Yrotation Zrotation
											JOINT LeftHandMiddle2
											{
												OFFSET 3.861618 0.000000 0.000000
												CHANNELS 3 Xrotation Yrotation Zrotation
												JOINT LeftHandMiddle3
												{
													OFFSET 3.701603 0.000000 0.000000
													CHANNELS 3 Xrotation Yrotation Zrotation
													JOINT LeftHandMiddle4
													{
														OFFSET 2.322544 0.000000 0.000000
														CHANNELS 3 Xrotation Yrotation Zrotation
														End Site
														{
															OFFSET 0.000000 0.000000 0.000000
														}
													}
												}
											}
										}
										JOINT LeftHandRing1
										{
											OFFSET 8.426460 -0.424637 -3.286992
											CHANNELS 3 Xrotation Yrotation Zrotation
											JOINT LeftHandRing2
											{
												OFFSET 3.126408 0.000000 0.000000
												CHANNELS 3 Xrotation Yrotation Zrotation
												JOINT LeftHandRing3
												{
													OFFSET 3.085026 0.000000 0.000000
													CHANNELS 3 Xrotation Yrotation Zrotation
													JOINT LeftHandRing4
													{
														OFFSET 1.644005 0.000000 0.000000
														CHANNELS 3 Xrotation Yrotation Zrotation
														End Site
														{
															OFFSET 0.000000 0.000000 0.000000
														}
													}
												}
											}
										}
									}
								}
							}
						}
					}
					JOINT RightShoulder
					{
						OFFSET -2.196100 4.412496 0.070690
						CHANNELS 3 Xrotation Yrotation Zrotation
						JOINT RightShoulder_split
						{
							OFFSET -2.196100 4.412496 0.070690
							CHANNELS 3 Xrotation Yrotation Zrotation
							JOINT RightArm
							{
								OFFSET -8.771282 -2.981682 -0.094208
								CHANNELS 3 Xrotation Yrotation Zrotation
								JOINT RightForeArm
								{
									OFFSET -8.494598 0.000000 0.000000
									CHANNELS 3 Xrotation Yrotation Zrotation
									JOINT RightHand
									{
										OFFSET -18.483803 0.000000 0.000001
										CHANNELS 3 Xrotation Yrotation Zrotation
										JOINT RightHandThumb1
										{
											OFFSET -2.527351 -1.008072 2.575253
											CHANNELS 3 Xrotation Yrotation Zrotation
											JOINT RightHandThumb2
											{
												OFFSET -2.321518 -1.340328 1.340329
												CHANNELS 3 Xrotation Yrotation Zrotation
												JOINT RightHandThumb3
												{
													OFFSET -2.657753 -1.534454 1.534455
													CHANNELS 3 Xrotation Yrotation Zrotation
													JOINT RightHandThumb4
													{
														OFFSET -1.807510 -1.043568 1.043567
														CHANNELS 3 Xrotation Yrotation Zrotation
														End Site
														{
															OFFSET 0.000000 0.000000 0.000000
														}
													}
												}
											}
										}
										JOINT RightHandIndex1
										{
											OFFSET -8.811420 0.015533 2.887987
											CHANNELS 3 Xrotation Yrotation Zrotation
											JOINT RightHandIndex2
											{
												OFFSET -3.537502 0.000000 0.000000
												CHANNELS 3 Xrotation Yrotation Zrotation
												JOINT RightHandIndex3
												{
													OFFSET -3.356201 0.000000 0.000000
													CHANNELS 3 Xrotation Yrotation Zrotation
													JOINT RightHandIndex4
													{
														OFFSET -1.933098 0.000000 0.000000
														CHANNELS 3 Xrotation Yrotation Zrotation
														End Site
														{
															OFFSET 0.000000 0.000000 0.000000
														}
													}
												}
											}
										}
										JOINT RightHandMiddle1
										{
											OFFSET -8.178135 0.000000 0.000000
											CHANNELS 3 Xrotation Yrotation Zrotation
											JOINT RightHandMiddle2
											{
												OFFSET -3.901302 0.000000 0.000000
												CHANNELS 3 Xrotation Yrotation Zrotation
												JOINT RightHandMiddle3
												{
													OFFSET -3.909599 0.000000 0.000000
													CHANNELS 3 Xrotation Yrotation Zrotation
													JOINT RightHandMiddle4
													{
														OFFSET -2.376003 0.000000 0.000000
														CHANNELS 3 Xrotation Yrotation Zrotation
														End Site
														{
															OFFSET 0.000000 0.000000 0.000000
														}
													}
												}
											}
										}
										JOINT RightHandRing1
										{
											OFFSET -7.559013 0.014137 -2.865403
											CHANNELS 3 Xrotation Yrotation Zrotation
											JOINT RightHandRing2
											{
												OFFSET -3.449306 0.000000 0.000000
												CHANNELS 3 Xrotation Yrotation Zrotation
												JOINT RightHandRing3
												{
													OFFSET -3.362106 0.000000 0.000000
													CHANNELS 3 Xrotation Yrotation Zrotation
													JOINT RightHandRing4
													{
														OFFSET -2.076401 0.000000 0.000000
														CHANNELS 3 Xrotation Yrotation Zrotation
														End Site
														{
															OFFSET 0.000000 0.000000 0.000000
														}
													}
												}
											}
										}
									}
								}
							}
						}
					}
				}
			}
		}
	}
	JOINT LeftUpLeg
	{
		OFFSET 10.205400 -3.823500 0.155100
		CHANNELS 3 Xrotation Yrotation Zrotation
		JOINT LeftLeg
		{
			OFFSET 0.708757 -12.982077 0.567790
			CHANNELS 3 Xrotation Yrotation Zrotation
			JOINT LeftFoot
			{
				OFFSET -0.708756 -10.717838 -2.184338
				CHANNELS 3 Xrotation Yrotation Zrotation
				JOINT LeftToeBase
				{
					OFFSET 0.108149 -7.191104 7.560241
					CHANNELS 3 Xrotation Yrotation Zrotation
					JOINT LeftToe_End
					{
						OFFSET 0.070230 0.081724 4.490308
						CHANNELS 3 Xrotation Yrotation Zrotation
						End Site
						{
							OFFSET 0.000000 0.000000 0.000000
						}
					}
				}
			}
		}
	}
	JOINT RightUpLeg
	{
		OFFSET -10.205400 -3.823500 0.005500
		CHANNELS 3 Xrotation Yrotation Zrotation
		JOINT RightLeg
		{
			OFFSET -0.708756 -12.982134 0.610632
			CHANNELS 3 Xrotation Yrotation Zrotation
			JOINT RightFoot
			{
				OFFSET 0.708754 -10.717769 -1.945823
				CHANNELS 3 Xrotation Yrotation Zrotation
				JOINT RightToeBase
				{
					OFFSET -0.108140 -7.191069 7.372968
					CHANNELS 3 Xrotation Yrotation Zrotation
					JOINT RightToe_End
					{
						OFFSET -0.070227 0.081735 4.479403
						CHANNELS 3 Xrotation Yrotation Zrotation
						End Site
						{
							OFFSET 0.000000 0.000000 0.000000
						}
					}
				}
			}
		}
	}
}
MOTION
Frames: 4
Frame Time: 0.016667
0.290976 25.294853 -3.148560 7.488942 2.336140 -2.918699 1.534608 -2.033243 1.373721 4.463941 -2.897045 3.069453 0.000000 0.000000 0.000000 4.470552 -2.960903 2.997962 -6.646403 2.329847 -0.789044 -22.799699 6.183979 9.466397 -0.000001 -0.000000 0.000000 -0.863856 7.389831 -0.025959 0.000000 0.000000 0.000000 -11.563470 10.383932 -66.345521 -0.000011 -115.180103 0.000019 -72.996199 -11.310927 -18.454626 2.694197 20.233078 14.029414 2.246563 5.062600 -0.344641 -7.335901 -0.421719 13.147321 -0.000000 -0.000004 -0.000002 5.768239 6.881133 -88.058747 5.425113 5.835599 -85.818110 5.524560 5.841974 -86.795585 -0.000000 0.000002 0.000003 -0.017684 7.177027 -79.088304 3.595324 5.400148 -67.288196 4.336611 5.652340 -74.974215 -0.000002 0.000004 0.000002 0.351613 7.858098 -86.242388 3.058241 5.143555 -61.447838 7.457107 5.627074 -105.957899 0.000000 0.000001 0.000001 0.518563 -7.917618 14.973067 0.000000 0.000000 0.000000 -19.108964 0.823938 54.260013 -0.000032 114.793883 -0.000004 -65.260907 9.926048 32.064706 2.274827 -18.433731 -12.204897 2.753434 -6.766197 -0.612017 -5.504804 -5.510950 -14.718498 -0.000002 -0.000000 0.000001 5.674720 -1.758860 87.252764 4.318636 -4.644850 85.826634 4.397481 -4.649927 86.799991 -0.000001 0.000002 0.000002 2.028903 -6.487524 78.554743 2.866363 -4.299790 67.363226 3.450450 -4.498459 74.966715 0.000000 0.000000 0.000001 -1.327489 -6.487794 85.540217 2.437379 -4.095148 61.507199 5.933620 -4.479187 105.923666 -0.000004 -0.000001 0.000000 41.693510 19.573072 5.165655 9.913664 -6.413413 6.337984 -50.986385 1.259585 -3.527845 -14.033039 0.000019 0.000003 0.000000 -0.000000 0.000001 -79.324403 -1.619600 -2.383364 74.176066 -2.609606 0.018214 -2.304055 3.718165 -3.628257 1.048070 -0.022269 1.271065 -0.000000 -0.000000 0.000001 
0.277358 26.395329 -2.711312 7.396250 3.955718 -2.130093 1.676804 -2.004718 1.375741 3.785096 -3.090958 2.685692 0.000000 0.000000 0.000000 3.791150 -3.134331 2.617750 -6.142036 2.189227 -1.060332 -20.578868 4.977733 9.024679 -0.000000 -0.000000 0.000001 -0.699209 6.301892 -0.123074 0.000000 0.000000 0.000000 -14.747410 8.597215 -65.355089 0.000014 -113.772346 0.000028 -71.122821 -11.217016 -18.020990 2.956449 20.391902 13.868053 2.256792 5.074898 -0.335835 -7.322888 -0.404666 13.162755 -0.000001 -0.000000 -0.000004 5.832242 6.953403 -87.643669 5.383902 5.832446 -85.412663 5.485075 5.839648 -86.407603 -0.000003 -0.000003 0.000002 0.075940 7.167625 -78.770557 3.574151 5.391273 -67.063032 4.317592 5.647216 -74.780914 0.000000 -0.000000 0.000000 0.430403 7.837987 -85.961742 3.052592 5.140479 -61.384686 7.436255 5.632948 -105.745166 -0.000002 -0.000001 -0.000000 0.413494 -7.788713 13.845066 0.000000 0.000000 0.000000 -20.755797 2.647594 54.652486 -0.000004 114.710322 -0.000025 -65.124911 9.634431 30.561640 2.414888 -18.861658 -12.282924 2.756546 -6.763774 -0.616799 -5.465473 -5.594278 -14.760058 0.000001 -0.000000 0.000001 5.724088 -2.009577 86.044681 4.254348 -4.639753 85.032665 4.335747 -4.646098 86.038138 0.000001 -0.000001 0.000002 2.223333 -6.492714 77.328192 2.805722 -4.274080 66.551847 3.389846 -4.481780 74.192698 -0.000001 -0.000001 0.000000 -1.004131 -6.353165 83.832711 2.365610 -4.055455 60.497410 5.838699 -4.505114 104.712039 -0.000001 0.000002 0.000002 37.469721 17.416031 5.554347 14.070805 -5.588689 7.451651 -45.590314 1.503260 -3.370901 -21.776991 0.000029 0.000009 0.000000 -0.000000 0.000001 -74.662143 -1.246928 -3.461455 71.816967 -3.138830 -0.210089 -4.496332 3.592036 -3.890498 1.054721 -0.022666 1.281928 0.000000 -0.000000 -0.000000 
0.291603 27.596775 -2.274474 7.043409 5.631738 -1.472373 2.307354 -1.901662 1.797226 3.099219 -3.162405 2.168580 0.000000 0.000000 0.000000 3.091627 -3.180354 2.120447 -5.647366 2.000597 -1.393999 -18.366983 3.484120 8.410582 0.000000 0.000000 -0.000001 -0.472603 4.837145 -0.286809 0.000000 0.000000 0.000000 -18.246984 6.118563 -64.201114 -0.000045 -111.959272 -0.000040 -70.528328 -11.069031 -17.672973 3.052315 20.083135 13.631512 2.282464 5.105835 -0.313560 -7.290195 -0.361707 13.201583 -0.000001 -0.000002 -0.000000 5.739243 6.804735 -86.402398 5.292534 5.824447 -84.512977 5.394053 5.833248 -85.512343 -0.000001 -0.000000 -0.000001 0.063390 7.084368 -77.817834 3.517040 5.366877 -66.453779 4.265181 5.632778 -74.247701 0.000002 0.000003 0.000002 0.429293 7.766198 -85.148567 3.012656 5.118568 -60.938033 7.349884 5.656485 -104.867221 0.000001 -0.000004 -0.000002 0.323431 -7.582996 12.788938 0.000000 0.000000 0.000000 -22.735704 4.589351 55.000546 -0.000030 114.546855 -0.000007 -66.009223 9.599521 29.265878 2.396689 -19.071075 -12.360067 2.764301 -6.757716 -0.628890 -5.366930 -5.803893 -14.864092 0.000001 -0.000003 -0.000001 5.394707 -1.676035 84.200243 4.152341 -4.629781 83.770166 4.238174 -4.638324 84.832384 0.000002 -0.000002 -0.000000 2.177242 -6.430854 75.372592 2.732567 -4.241687 65.566490 3.316549 -4.460422 73.252283 -0.000002 0.000001 0.000001 -0.872472 -6.186913 81.800190 2.288872 -4.011156 59.406199 5.709557 -4.536960 103.074043 0.000002 -0.000000 -0.000002 31.061962 14.984820 6.137945 22.285837 -3.419725 9.203432 -39.188651 2.793933 -4.601991 -32.297533 0.000043 0.000006 0.000001 0.000000 -0.000001 -69.098360 -1.139960 -4.468131 68.202874 -3.733754 -0.443152 -6.077298 3.423975 -4.183571 1.027614 -0.021684 1.253389 0.000000 -0.000000 0.000001 
0.325862 28.763954 -1.865616 6.503789 7.315788 -0.897800 3.201023 -1.767590 2.311308 2.446614 -3.124233 1.713961 0.000000 0.000000 0.000000 2.423731 -3.115747 1.695902 -5.047374 1.811919 -1.815771 -16.188800 1.802792 7.789922 0.000000 -0.000000 0.000000 -0.203418 3.122961 -0.567059 0.000000 0.000000 0.000000 -21.904195 3.029771 -63.035051 0.000011 -109.690345 -0.000005 -71.153462 -10.857845 -17.502920 3.052057 19.424561 13.311512 2.318687 5.149503 -0.282183 -7.244062 -0.301062 13.256370 -0.000002 -0.000001 -0.000002 5.508316 6.540115 -84.405005 5.160476 5.810335 -83.210036 5.260997 5.821318 -84.201998 -0.000000 -0.000003 -0.000001 -0.028289 6.934530 -76.285802 3.430228 5.328373 -65.522305 4.186305 5.610028 -73.442456 0.000003 -0.000001 0.000000 0.374624 7.647765 -83.847040 2.941958 5.078807 -60.142575 7.203636 5.693114 -103.388355 0.000000 0.000001 -0.000002 0.250419 -6.988273 11.672850 0.000000 0.000000 0.000000 -25.083291 6.274643 55.058766 -0.000001 114.221950 -0.000032 -67.297048 9.612990 28.187356 2.225115 -18.937410 -12.390625 2.775315 -6.749205 -0.645840 -5.228475 -6.100018 -15.010340 -0.000004 -0.000002 -0.000000 4.860529 -0.985214 81.914828 4.024123 -4.614040 82.179149 4.115787 -4.625663 83.317079 0.000000 0.000001 -0.000003 1.826111 -6.267477 72.978713 2.650923 -4.203735 64.457759 3.234631 -4.435039 72.196315 -0.000002 -0.000002 -0.000001 -0.841704 -5.998521 79.557354 2.208679 -3.962788 58.253078 5.556949 -4.569601 101.151488 0.000003 0.000001 -0.000003 21.916091 12.174389 6.999208 34.336782 -0.089092 11.219387 -29.458264 5.159604 -8.321890 -46.013663 0.000054 0.000027 0.000000 0.000001 0.000001 -63.411039 -1.209280 -5.183358 64.008148 -4.575756 -0.805781 -7.024044 3.269332 -4.695938 0.749101 -0.011760 0.922472 0.000000 -0.000000 0.000001 
